<svg width="68" height="44" viewBox="0 0 68 44" fill="none" xmlns="http://www.w3.org/2000/svg">
<path d="M14.685 10H10.45V42.56C10.45 42.8533 10.3217 43 10.065 43H5.06C4.76667 43 4.62 42.8533 4.62 42.56V10H0.44C0.146667 10 0 9.87166 0 9.615V4.94C0 4.64666 0.146667 4.5 0.44 4.5H14.685C14.9783 4.5 15.125 4.64666 15.125 4.94V9.615C15.125 9.87166 14.9783 10 14.685 10ZM30.6414 4.5H36.3064C36.5998 4.5 36.7464 4.64666 36.7464 4.94L42.9614 42.56C42.9614 42.8533 42.8148 43 42.5214 43H37.3514C37.0581 43 36.9114 42.8533 36.9114 42.56L35.6464 33.375H31.0814L29.7064 42.56C29.7064 42.8533 29.5598 43 29.2664 43H24.0964C23.8031 43 23.6564 42.8533 23.6564 42.56L30.2014 4.94C30.2014 4.64666 30.3481 4.5 30.6414 4.5ZM33.5014 17.26L31.9064 27.875H34.9314L33.5014 17.26ZM66.0937 26.225H61.4187V42.56C61.4187 42.8533 61.272 43 60.9787 43H56.0287C55.7353 43 55.5887 42.8533 55.5887 42.56V4.94C55.5887 4.64666 55.7353 4.5 56.0287 4.5H66.2587C66.552 4.5 66.6987 4.64666 66.6987 4.94V9.615C66.6987 9.87166 66.552 10 66.2587 10H61.4187V20.67H66.0937C66.387 20.67 66.5337 20.8167 66.5337 21.11V25.785C66.5337 26.0783 66.387 26.225 66.0937 26.225Z" fill="#040F20"/>
<rect x="8" y="28" width="48" height="6" fill="#040F20"/>
</svg>
