<svg width="70" height="59" viewBox="0 0 70 59" fill="none" xmlns="http://www.w3.org/2000/svg">
<path d="M47.6873 25.0936C47.5827 24.9082 47.4296 24.7551 47.2442 24.6505L28.5775 14.1505C28.0177 13.8316 27.3053 14.0269 26.9864 14.5867C26.8857 14.7635 26.8329 14.9634 26.8334 15.1667V36.1667C26.8347 36.5822 27.0568 36.9657 27.4167 37.1735C27.7746 37.3827 28.2165 37.3862 28.5775 37.1829L47.2442 26.6829C47.8054 26.3663 48.0037 25.6547 47.6873 25.0936ZM29.1667 34.1717V17.1617L44.2867 25.6667L29.1667 34.1717Z" fill="white"/>
<path d="M23.3333 49V46.6666H21V49H4.66663V51.3333H21V53.6666H23.3333V51.3333H65.3333V49H23.3333Z" fill="white"/>
<path d="M35 7C24.6908 7 16.3334 15.3574 16.3334 25.6667C16.3456 35.971 24.6957 44.3211 35 44.3333C45.3093 44.3333 53.6667 35.9759 53.6667 25.6667C53.6667 15.3574 45.3093 7 35 7ZM35 42C25.9794 42 18.6667 34.6873 18.6667 25.6667C18.6763 16.6501 25.9835 9.34296 35 9.33333C44.0207 9.33333 51.3334 16.646 51.3334 25.6667C51.3334 34.6873 44.0207 42 35 42Z" fill="white"/>
<path d="M66.5 0H3.5C1.56698 0 0 1.56698 0 3.5V54.8333C0 56.7664 1.56698 58.3333 3.5 58.3333H66.5C68.433 58.3333 70 56.7664 70 54.8333V3.5C70 1.56698 68.433 0 66.5 0ZM67.6667 54.8333C67.6667 55.4776 67.1443 56 66.5 56H3.5C2.85571 56 2.33333 55.4776 2.33333 54.8333V3.5C2.33333 2.85571 2.85571 2.33333 3.5 2.33333H66.5C67.1443 2.33333 67.6667 2.85571 67.6667 3.5V54.8333Z" fill="white"/>
<path d="M6.99996 4.66663H4.66663V6.99996H6.99996V4.66663Z" fill="white"/>
<path d="M11.6667 4.66663H9.33337V6.99996H11.6667V4.66663Z" fill="white"/>
<path d="M16.3333 4.66663H14V6.99996H16.3333V4.66663Z" fill="white"/>
</svg>
