<svg width="70" height="70" viewBox="0 0 70 70" fill="none" xmlns="http://www.w3.org/2000/svg">
<path d="M69.918 5.22565C69.7664 2.44506 67.5549 0.233909 64.7744 0.0821511C59.1637 -0.224372 48.1846 0.0738115 37.6863 5.50387C32.3344 8.27215 26.6743 12.9656 22.1572 18.3807C22.1016 18.4474 22.0474 18.5146 21.9922 18.5814L11.741 19.3733C10.0536 19.5037 8.5507 20.3882 7.61745 21.7996L0.623745 32.3778C-0.0840479 33.4484 -0.196567 34.7881 0.322554 35.9615C0.841811 37.1351 1.90876 37.953 3.17683 38.1494L11.8135 39.4871C11.783 39.655 11.7524 39.8227 11.7243 39.9906C11.4368 41.7105 12.0067 43.4789 13.2489 44.7209L25.279 56.7512C26.309 57.7811 27.7006 58.3489 29.1266 58.3489C29.4203 58.3489 29.7156 58.3247 30.0095 58.2756C30.1774 58.2476 30.3452 58.217 30.5131 58.1865L31.8507 66.8233C32.0472 68.0914 32.865 69.1585 34.0383 69.6776C34.5266 69.8936 35.0432 70.0002 35.5576 70.0002C36.2798 70.0001 36.9971 69.7898 37.6221 69.3765L48.2003 62.3827C49.612 61.4493 50.4963 59.9464 50.6264 58.2591L51.4183 48.0081C51.4852 47.9528 51.5524 47.8987 51.6191 47.8431C57.0344 43.326 61.728 37.6658 64.4961 32.3139C69.9265 21.8151 70.2241 10.8359 69.918 5.22565ZM45.9383 58.9612L35.8196 65.6512L34.5159 57.2341C38.7925 55.9767 43.0229 53.9629 47.0533 51.265L46.5374 57.943C46.5053 58.3596 46.2868 58.7308 45.9383 58.9612ZM28.1793 53.851L16.149 41.8207C15.842 41.5137 15.7001 41.0823 15.7697 40.6668C16.1274 38.5281 16.6831 36.4923 17.3711 34.5744L35.4218 52.6251C33.1184 53.4502 31.0551 53.9423 29.3332 54.2303C28.917 54.2995 28.4862 54.158 28.1793 53.851ZM12.057 23.4627L18.7349 22.9468C16.0369 26.9772 14.023 31.2077 12.7656 35.4842L4.34865 34.1806L11.0388 24.0618C11.2693 23.7132 11.6405 23.4948 12.057 23.4627ZM48.9922 44.6932C45.6791 47.4567 42.4631 49.4555 39.4988 50.9019L19.0975 30.5006C20.9921 26.6309 23.3044 23.4086 25.3068 21.008C29.487 15.9966 34.686 11.6734 39.5708 9.14687C49.2059 4.16307 59.3574 3.89469 64.5511 4.17742C65.2385 4.21488 65.7852 4.76162 65.8227 5.44918C66.1059 10.6429 65.8369 20.7942 60.8531 30.4295C58.3267 35.3142 54.0035 40.513 48.9922 44.6932Z" fill="white"/>
<path d="M47.9502 32.2988C50.5754 32.2985 53.2018 31.2991 55.2005 29.3004C57.1373 27.3638 58.2037 24.7889 58.2037 22.0501C58.2037 19.3114 57.1371 16.7364 55.2005 14.7998C51.2026 10.8017 44.6975 10.802 40.6998 14.7998C38.7631 16.7364 37.6965 19.3114 37.6965 22.0501C37.6965 24.7889 38.7632 27.3638 40.6998 29.3004C42.6989 31.2995 45.3239 32.2991 47.9502 32.2988ZM43.5998 17.6999C44.7991 16.5004 46.3745 15.9008 47.9499 15.9008C49.5254 15.9008 51.1008 16.5004 52.3001 17.6999C53.4621 18.8618 54.102 20.4067 54.102 22.05C54.102 23.6932 53.4621 25.2382 52.3001 26.4002C49.9015 28.799 45.9984 28.7988 43.5996 26.4002C42.4377 25.2382 41.7977 23.6933 41.7977 22.0501C41.7977 20.4069 42.4378 18.8618 43.5998 17.6999Z" fill="white"/>
<path d="M2.09197 57.6868C2.61684 57.6868 3.1417 57.4866 3.54201 57.0861L10.2375 50.3905C11.0384 49.5896 11.0384 48.2912 10.2375 47.4903C9.43677 46.6894 8.13822 46.6894 7.33732 47.4903L0.641933 54.1858C-0.158965 54.9867 -0.158965 56.2852 0.641933 57.0861C1.04225 57.4865 1.56711 57.6868 2.09197 57.6868Z" fill="white"/>
<path d="M16.3736 53.6264C15.5729 52.8255 14.2743 52.8255 13.4734 53.6264L0.600796 66.4991C-0.200102 67.3 -0.200102 68.5984 0.600796 69.3993C1.00124 69.7998 1.52597 69.9999 2.05083 69.9999C2.5757 69.9999 3.10056 69.7998 3.50087 69.3992L16.3735 56.5266C17.1745 55.7257 17.1745 54.4273 16.3736 53.6264Z" fill="white"/>
<path d="M19.6094 59.7625L12.9139 66.458C12.113 67.2589 12.113 68.5573 12.9139 69.3582C13.3144 69.7587 13.8392 69.959 14.3639 69.959C14.8887 69.959 15.4137 69.7588 15.814 69.3582L22.5095 62.6627C23.3104 61.8618 23.3104 60.5634 22.5095 59.7625C21.7087 58.9616 20.4102 58.9616 19.6094 59.7625Z" fill="white"/>
</svg>
