<svg width="70" height="72" viewBox="0 0 70 72" fill="none" xmlns="http://www.w3.org/2000/svg">
<path d="M68.3853 24.5402C62.6213 6.1281 42.9575 -4.16133 24.5419 1.60034C6.12856 7.36437 -4.16213 27.0329 1.60079 45.4449L3.86349 44.7362C-1.50948 27.5722 8.08427 9.23587 25.2506 3.86179C33.5665 1.26014 42.398 2.05185 50.1154 6.09016C57.8363 10.1308 63.521 16.9342 66.1239 25.249C68.7255 33.5637 67.9349 42.3941 63.8955 50.1139C59.8572 57.8347 53.0538 63.5194 44.7379 66.1223C30.8191 70.4782 15.5622 64.9773 7.62678 52.7429L5.63785 54.0325C12.1972 64.1477 23.4241 69.9722 35.0624 69.9709C38.5234 69.9709 42.0235 69.4565 45.4455 68.3826C54.3647 65.5913 61.6625 59.493 65.9959 51.2127C70.3292 42.9322 71.1767 33.4595 68.3853 24.5402Z" fill="white"/>
<path d="M28.1236 16.594L28.804 14.323L16.9512 10.7672C16.5363 10.6415 16.0823 10.7554 15.773 11.0647L13.4024 13.4353C13.1263 13.7114 13.0042 14.1061 13.0753 14.4902C13.1465 14.8741 13.4024 15.1978 13.7592 15.3566L24.4268 20.0977L25.3893 17.9311L16.2994 13.8904L16.9489 13.2408L28.1236 16.594Z" fill="white"/>
<path d="M39.1338 9.53341C39.1338 8.87915 38.6039 8.34814 37.9485 8.34814C37.9473 8.34814 37.9473 8.34814 37.9461 8.34814C35.3385 8.34814 32.8861 9.36387 31.0419 11.2083L20.9908 21.2583L16.9003 20.2353C16.4962 20.1346 16.0694 20.2518 15.7743 20.547L13.4037 22.9176C13.1454 23.1759 13.0198 23.5386 13.0648 23.9002C13.1098 24.2617 13.3184 24.5841 13.6314 24.7714L19.3041 28.1755L22.7081 33.8482C22.8955 34.1612 23.2166 34.3698 23.5794 34.4148C23.6267 34.4208 23.6754 34.4231 23.724 34.4231C24.0357 34.4231 24.338 34.2998 24.5633 34.0771L26.9338 31.7065C27.2277 31.4114 27.3463 30.9847 27.2455 30.5805L26.2238 26.4948L36.435 16.3843C38.1773 14.5601 39.1361 12.1635 39.1338 9.53341ZM24.0748 25.2834C23.7772 25.5773 23.6576 26.0064 23.7583 26.4129L24.7813 30.5033L23.9587 31.3259L21.1839 26.701C21.0832 26.5338 20.9445 26.394 20.7774 26.2945L16.1525 23.5197L16.9751 22.6972L21.0655 23.7201C21.4697 23.8209 21.8964 23.7036 22.1916 23.4084L32.7169 12.8831C33.8074 11.7915 35.1798 11.0839 36.6686 10.8267C36.4339 12.2917 35.7666 13.65 34.7425 14.7227L24.0748 25.2834Z" fill="white"/>
<path d="M36.7123 30.6847L33.1564 18.6779L30.883 19.3512L34.2243 30.6327L33.5048 31.2681L29.5531 22.1011L27.3757 23.0398L31.9746 33.7074C32.1252 34.0559 32.4334 34.3119 32.8043 34.3949C32.8909 34.4138 32.9773 34.4234 33.0639 34.4234C33.3496 34.4234 33.6292 34.3203 33.8474 34.1271L36.3602 31.9107C36.7063 31.6056 36.8426 31.128 36.7123 30.6847Z" fill="white"/>
<path d="M22.5766 65.3553C14.135 69.3555 7.51288 69.8724 4.41219 66.7729C-0.961894 61.3989 4.8744 45.7852 17.9871 30.4525L16.1855 28.9116C1.80346 45.7282 -3.72822 61.9867 2.73511 68.4489C4.54032 70.2529 7.08986 71.1526 10.2521 71.1526C13.9383 71.1526 18.4566 69.9306 23.5912 67.4971L22.5766 65.3553Z" fill="white"/>
<path d="M62.6995 40.9752C62.4932 40.59 62.0915 40.3494 61.654 40.3494H57.6454L54.4168 33.8932C54.2152 33.4914 53.8051 33.2377 53.3559 33.2377H41.503C40.8475 33.2377 40.3177 33.7687 40.3177 34.4229V43.9052C40.3177 44.5608 40.8476 45.0905 41.503 45.0905H45.0588V58.1286C45.0588 58.7841 45.5886 59.3139 46.2441 59.3139H52.1705C52.4845 59.3139 52.7857 59.1894 53.0097 58.9654L57.7508 54.2243C57.9735 54.0026 58.0981 53.7016 58.0981 53.3863V49.0043L62.64 42.1913C62.8819 41.8286 62.9057 41.3604 62.6995 40.9752ZM55.9255 47.9886C55.7963 48.183 55.7264 48.4129 55.7264 48.6465V52.8968L51.6799 56.9433H47.4295H47.4283V43.9052C47.4283 43.2497 46.8985 42.72 46.243 42.72H42.6872V35.6083H52.6222L55.8509 42.0646C56.0524 42.4664 56.4625 42.7201 56.9117 42.7201H59.4387L55.9255 47.9886Z" fill="white"/>
<path d="M63.5257 30.8671L59.1259 23.1675C58.9149 22.7977 58.5214 22.5701 58.0971 22.5701H50.9855C50.5896 22.5701 50.2198 22.768 49.9994 23.0975L47.9808 26.1259H45.0591V20.1996H50.9855C51.3008 20.1996 51.6007 20.0751 51.8235 19.8523L56.2173 15.4585H61.6529V13.088H55.7266C55.4112 13.088 55.1114 13.2125 54.8886 13.4352L50.4948 17.829H43.8739C43.2183 17.829 42.6886 18.36 42.6886 19.0143V27.3112C42.6886 27.9655 43.2185 28.4965 43.8739 28.4965H48.6149C49.0109 28.4965 49.3807 28.2986 49.6011 27.9691L51.6196 24.9407H57.4098L61.8095 32.6403C62.0205 33.01 62.4141 33.2377 62.8383 33.2377H67.5794V30.8671H63.5257Z" fill="white"/>
<path d="M34.3915 42.72H27.7706L24.562 39.5115C24.3404 39.2886 24.0381 39.1642 23.724 39.1642H17.7977C17.1434 39.1642 16.6124 39.6941 16.6124 40.3495V48.6463C16.6124 49.3019 17.1434 49.8316 17.7977 49.8316H22.5388V61.6845C22.5388 62.1337 22.7924 62.5438 23.1943 62.7452C23.3615 62.8282 23.5439 62.8697 23.7242 62.8697C23.9754 62.8697 24.2256 62.7904 24.4353 62.6326L29.1764 59.0768C29.475 58.8528 29.6505 58.5008 29.6505 58.1286V55.1418L35.1325 50.7574C35.4133 50.5323 35.5769 50.1921 35.5769 49.8318V43.9054C35.5767 43.2499 35.0457 42.72 34.3915 42.72ZM33.2062 49.2628L27.7243 53.6472C27.4434 53.8724 27.2799 54.2125 27.2799 54.5728V57.5361L24.9093 59.3141V48.6465C24.9093 47.991 24.3783 47.4612 23.724 47.4612H18.983V41.5349H23.2333L26.4419 44.7434C26.6635 44.9662 26.9658 45.0907 27.2799 45.0907H33.2062V49.2628Z" fill="white"/>
<path d="M10.5164 25.5157L6.96056 19.5894C6.74724 19.2326 6.36077 19.0145 5.94483 19.0145H4.75956V21.385H5.27403L8.00853 25.9424L5.10699 28.8439C4.88408 29.0656 4.7597 29.3678 4.7597 29.6819V33.2377H1.20361V35.6082H5.94469C6.59896 35.6082 7.12996 35.0772 7.12996 34.423V30.1726L10.3385 26.9641C10.7226 26.5788 10.7961 25.9827 10.5164 25.5157Z" fill="white"/>
</svg>
